<?xml version="1.0" standalone="no"?><!DOCTYPE svg PUBLIC "-//W3C//DTD SVG 1.1//EN" "http://www.w3.org/Graphics/SVG/1.1/DTD/svg11.dtd"><svg t="1623997697172" class="icon" viewBox="0 0 1024 1024" version="1.1" xmlns="http://www.w3.org/2000/svg" p-id="2363" width="128" height="128" xmlns:xlink="http://www.w3.org/1999/xlink"><defs><style type="text/css"></style></defs><path d="M560.54556445 706.18112V803.27111111H657.63555555a48.54556445 48.54556445 0 0 1 0 97.08999111h-97.0899911V948.90666667a48.54556445 48.54556445 0 0 1-97.0911289 0V509.57312c-164.66488889-16.89372445-291.27111111-118.06264889-291.2711111-240.29866667 0-134.03363555 152.14136889-242.72668445 339.81667555-242.72668444s339.81667555 108.69304889 339.81667555 242.72668444c0 122.28494222-126.60622222 223.45272889-291.2711111 240.29866667v99.51687111H657.63555555a48.54556445 48.54556445 0 0 1 0 97.09112889h-97.0899911zM512 366.36444445a97.08999111 97.08999111 0 1 0 0-194.18112A97.08999111 97.08999111 0 0 0 512 366.36444445z" p-id="2364" fill="#707070"></path></svg>